<mxfile host="65bd71144e">
    <diagram id="f9ofhvscqAVapVEzPAAC" name="acquire(int arg)">
        <mxGraphModel grid="1" page="1" gridSize="10" guides="1" tooltips="1" connect="1" arrows="1" fold="1" pageScale="1" pageWidth="850" pageHeight="1100" math="0" shadow="0">
            <root>
                <mxCell id="0"/>
                <mxCell id="1" parent="0"/>
                <mxCell id="3" value="&lt;h1&gt;&lt;div style=&quot;background-color:#1e1f22;color:#bcbec4&quot;&gt;&lt;pre style=&quot;font-family:'Fira Code Medium',monospace;font-size:12.0pt;&quot;&gt;&lt;div&gt;&lt;pre style=&quot;font-family:'Fira Code Medium',monospace;font-size:12.0pt;&quot;&gt;&lt;span style=&quot;color:#cf8e6d;&quot;&gt;public final void &lt;/span&gt;&lt;span style=&quot;color:#56a8f5;&quot;&gt;acquire&lt;/span&gt;(&lt;span style=&quot;color:#cf8e6d;&quot;&gt;int &lt;/span&gt;arg)&lt;/pre&gt;&lt;/div&gt;&lt;/pre&gt;&lt;/div&gt;&lt;/h1&gt;&lt;p&gt;在独占模式下获取，忽略中断。至少调用一次 tryAcquire，成功后返回。否则，线程将被排队，可能会反复阻塞和解阻塞，调用 tryAcquire 直到成功。该方法可用于实现 Lock.lock 方法。&lt;/p&gt;" style="text;html=1;strokeColor=none;fillColor=none;spacing=5;spacingTop=-20;whiteSpace=wrap;overflow=hidden;rounded=0;" vertex="1" parent="1">
                    <mxGeometry x="-110" y="10" width="400" height="130" as="geometry"/>
                </mxCell>
                <mxCell id="4" value="&lt;div style=&quot;background-color:#1e1f22;color:#bcbec4&quot;&gt;&lt;pre style=&quot;font-family:'Fira Code Medium',monospace;font-size:12.0pt;&quot;&gt;&lt;b&gt;AbstractQueuedSynchronizer&lt;/b&gt;&lt;/pre&gt;&lt;/div&gt;" style="text;html=1;strokeColor=none;fillColor=none;align=center;verticalAlign=middle;whiteSpace=wrap;rounded=0;" vertex="1" parent="1">
                    <mxGeometry x="-120" y="-80" width="350" height="40" as="geometry"/>
                </mxCell>
                <mxCell id="7" value="" style="edgeStyle=orthogonalEdgeStyle;html=1;" edge="1" parent="1" source="5" target="6">
                    <mxGeometry relative="1" as="geometry"/>
                </mxCell>
                <mxCell id="9" value="&lt;font style=&quot;font-size: 14px;&quot;&gt;Y&lt;/font&gt;" style="edgeLabel;html=1;align=center;verticalAlign=middle;resizable=0;points=[];" vertex="1" connectable="0" parent="7">
                    <mxGeometry x="-0.3111" y="-2" relative="1" as="geometry">
                        <mxPoint as="offset"/>
                    </mxGeometry>
                </mxCell>
                <mxCell id="21" value="" style="edgeStyle=orthogonalEdgeStyle;html=1;fontSize=14;entryX=0.5;entryY=0;entryDx=0;entryDy=0;" edge="1" parent="1" source="5" target="24">
                    <mxGeometry relative="1" as="geometry">
                        <mxPoint x="495" y="670" as="targetPoint"/>
                    </mxGeometry>
                </mxCell>
                <mxCell id="22" value="N" style="edgeLabel;html=1;align=center;verticalAlign=middle;resizable=0;points=[];fontSize=14;" vertex="1" connectable="0" parent="21">
                    <mxGeometry x="-0.1684" y="-2" relative="1" as="geometry">
                        <mxPoint as="offset"/>
                    </mxGeometry>
                </mxCell>
                <mxCell id="5" value="&lt;div style=&quot;background-color:#1e1f22;color:#bcbec4&quot;&gt;&lt;pre style=&quot;font-family:'Fira Code Medium',monospace;font-size:12.0pt;&quot;&gt;&lt;div&gt;&lt;pre style=&quot;font-family:'Fira Code Medium',monospace;font-size:12.0pt;&quot;&gt;tryAcquire(arg)&lt;/pre&gt;&lt;/div&gt;&lt;/pre&gt;&lt;/div&gt;" style="rhombus;whiteSpace=wrap;html=1;" vertex="1" parent="1">
                    <mxGeometry x="50" y="520" width="220" height="80" as="geometry"/>
                </mxCell>
                <mxCell id="6" value="&lt;div style=&quot;background-color:#1e1f22;color:#bcbec4&quot;&gt;&lt;pre style=&quot;font-family:'Fira Code Medium',monospace;font-size:12.0pt;&quot;&gt;&lt;span style=&quot;font-style:italic;&quot;&gt;selfInterrupt&lt;/span&gt;&lt;/pre&gt;&lt;pre style=&quot;font-family:'Fira Code Medium',monospace;font-size:12.0pt;&quot;&gt;&lt;i style=&quot;font-size: 12pt; white-space: normal;&quot;&gt;当前线程中断&lt;/i&gt;&lt;/pre&gt;&lt;/div&gt;" style="rounded=1;whiteSpace=wrap;html=1;" vertex="1" parent="1">
                    <mxGeometry x="75" y="710" width="170" height="80" as="geometry"/>
                </mxCell>
                <mxCell id="24" value="&lt;div style=&quot;background-color:#1e1f22;color:#bcbec4&quot;&gt;&lt;pre style=&quot;font-family:'Fira Code Medium',monospace;font-size:12.0pt;&quot;&gt;addWaiter(Node.&lt;span style=&quot;color:#c77dbb;font-style:italic;&quot;&gt;EXCLUSIVE&lt;/span&gt;)&lt;/pre&gt;&lt;/div&gt;" style="swimlane;whiteSpace=wrap;html=1;fontSize=14;startSize=50;" vertex="1" parent="1">
                    <mxGeometry x="310" y="750" width="775" height="950" as="geometry">
                        <mxRectangle x="340" y="720" width="290" height="60" as="alternateBounds"/>
                    </mxGeometry>
                </mxCell>
                <mxCell id="27" value="" style="edgeStyle=orthogonalEdgeStyle;html=1;fontSize=14;" edge="1" parent="24" source="25" target="26">
                    <mxGeometry relative="1" as="geometry"/>
                </mxCell>
                <mxCell id="25" value="创建Node节点" style="rounded=0;whiteSpace=wrap;html=1;fontSize=14;" vertex="1" parent="24">
                    <mxGeometry x="180" y="80" width="120" height="60" as="geometry"/>
                </mxCell>
                <mxCell id="30" value="" style="edgeStyle=orthogonalEdgeStyle;html=1;fontSize=14;" edge="1" parent="24" source="26" target="29">
                    <mxGeometry relative="1" as="geometry"/>
                </mxCell>
                <mxCell id="35" value="Y" style="edgeLabel;html=1;align=center;verticalAlign=middle;resizable=0;points=[];fontSize=14;" vertex="1" connectable="0" parent="30">
                    <mxGeometry x="-0.3273" y="-2" relative="1" as="geometry">
                        <mxPoint as="offset"/>
                    </mxGeometry>
                </mxCell>
                <mxCell id="37" value="" style="edgeStyle=orthogonalEdgeStyle;html=1;fontSize=14;" edge="1" parent="24" source="26" target="36">
                    <mxGeometry relative="1" as="geometry"/>
                </mxCell>
                <mxCell id="38" value="N" style="edgeLabel;html=1;align=center;verticalAlign=middle;resizable=0;points=[];fontSize=14;" vertex="1" connectable="0" parent="37">
                    <mxGeometry x="-0.28" y="-1" relative="1" as="geometry">
                        <mxPoint as="offset"/>
                    </mxGeometry>
                </mxCell>
                <mxCell id="26" value="尾节点是否存在？" style="rhombus;whiteSpace=wrap;html=1;fontSize=14;fillColor=rgb(24, 20, 29);rounded=0;" vertex="1" parent="24">
                    <mxGeometry x="160" y="210" width="160" height="90" as="geometry"/>
                </mxCell>
                <mxCell id="LIpXykSS2qwct6Vp1co--41" value="" style="edgeStyle=orthogonalEdgeStyle;html=1;fontSize=16;fontColor=#2dd421;entryX=0.5;entryY=0;entryDx=0;entryDy=0;" edge="1" parent="24" source="29" target="LIpXykSS2qwct6Vp1co--42">
                    <mxGeometry relative="1" as="geometry">
                        <mxPoint x="240" y="520" as="targetPoint"/>
                    </mxGeometry>
                </mxCell>
                <mxCell id="29" value="新节点前向连接尾节点" style="whiteSpace=wrap;html=1;fontSize=14;fillColor=rgb(24, 20, 29);rounded=0;" vertex="1" parent="24">
                    <mxGeometry x="180" y="380" width="120" height="60" as="geometry"/>
                </mxCell>
                <mxCell id="36" value="" style="whiteSpace=wrap;html=1;fontSize=14;fillColor=rgb(24, 20, 29);rounded=0;" vertex="1" parent="24">
                    <mxGeometry x="410" y="380" width="120" height="60" as="geometry"/>
                </mxCell>
                <mxCell id="LIpXykSS2qwct6Vp1co--42" value="&lt;pre style=&quot;color: rgb(188, 190, 196); font-family: &amp;quot;Fira Code Medium&amp;quot;, monospace; font-size: 12pt;&quot;&gt;compareAndSetTail(pred, node)&lt;/pre&gt;&lt;pre style=&quot;color: rgb(188, 190, 196); font-family: &amp;quot;Fira Code Medium&amp;quot;, monospace; font-size: 12pt;&quot;&gt;将当前节点替换尾节点&lt;/pre&gt;" style="shape=process;whiteSpace=wrap;html=1;backgroundOutline=1;fontSize=16;fontColor=#2dd421;" vertex="1" parent="24">
                    <mxGeometry x="50" y="490" width="380" height="60" as="geometry"/>
                </mxCell>
            </root>
        </mxGraphModel>
    </diagram>
    <diagram id="zjGJxaz_YKM-sOUEJDx1" name="Page-2">
        <mxGraphModel dx="830" dy="1139" grid="1" gridSize="10" guides="1" tooltips="1" connect="1" arrows="1" fold="1" page="1" pageScale="1" pageWidth="850" pageHeight="1100" math="0" shadow="0">
            <root>
                <mxCell id="0"/>
                <mxCell id="1" parent="0"/>
                <mxCell id="GIDhicsu1I7y92ZXzIni-4" value="Node" style="swimlane;fontStyle=0;childLayout=stackLayout;horizontal=1;startSize=26;fillColor=none;horizontalStack=0;resizeParent=1;resizeParentMax=0;resizeLast=0;collapsible=1;marginBottom=0;fontSize=14;" vertex="1" parent="1">
                    <mxGeometry x="1110" y="1130" width="140" height="78" as="geometry"/>
                </mxCell>
                <mxCell id="GIDhicsu1I7y92ZXzIni-5" value="prev: Node " style="text;strokeColor=none;fillColor=none;align=left;verticalAlign=top;spacingLeft=4;spacingRight=4;overflow=hidden;rotatable=0;points=[[0,0.5],[1,0.5]];portConstraint=eastwest;fontSize=14;" vertex="1" parent="GIDhicsu1I7y92ZXzIni-4">
                    <mxGeometry y="26" width="140" height="26" as="geometry"/>
                </mxCell>
                <mxCell id="GIDhicsu1I7y92ZXzIni-6" value="next: Node" style="text;strokeColor=none;fillColor=none;align=left;verticalAlign=top;spacingLeft=4;spacingRight=4;overflow=hidden;rotatable=0;points=[[0,0.5],[1,0.5]];portConstraint=eastwest;fontSize=14;" vertex="1" parent="GIDhicsu1I7y92ZXzIni-4">
                    <mxGeometry y="52" width="140" height="26" as="geometry"/>
                </mxCell>
                <mxCell id="GIDhicsu1I7y92ZXzIni-7" value="&lt;blockquote style=&quot;margin: 0 0 0 40px; border: none; padding: 0px;&quot;&gt;&lt;font color=&quot;#2dd421&quot; style=&quot;font-size: 16px;&quot;&gt;&lt;b&gt;&lt;i&gt;tail&lt;/i&gt;&lt;/b&gt;&lt;/font&gt;&lt;/blockquote&gt;" style="shape=singleArrow;direction=south;whiteSpace=wrap;html=1;fontSize=14;" vertex="1" parent="1">
                    <mxGeometry x="1160" y="1030" width="40" height="100" as="geometry"/>
                </mxCell>
                <mxCell id="GIDhicsu1I7y92ZXzIni-11" value="Node" style="swimlane;fontStyle=0;childLayout=stackLayout;horizontal=1;startSize=26;fillColor=none;horizontalStack=0;resizeParent=1;resizeParentMax=0;resizeLast=0;collapsible=1;marginBottom=0;fontSize=14;" vertex="1" parent="1">
                    <mxGeometry x="910" y="1130" width="140" height="78" as="geometry"/>
                </mxCell>
                <mxCell id="GIDhicsu1I7y92ZXzIni-12" value="prev: Node " style="text;strokeColor=none;fillColor=none;align=left;verticalAlign=top;spacingLeft=4;spacingRight=4;overflow=hidden;rotatable=0;points=[[0,0.5],[1,0.5]];portConstraint=eastwest;fontSize=14;" vertex="1" parent="GIDhicsu1I7y92ZXzIni-11">
                    <mxGeometry y="26" width="140" height="26" as="geometry"/>
                </mxCell>
                <mxCell id="GIDhicsu1I7y92ZXzIni-13" value="next: Node" style="text;strokeColor=none;fillColor=none;align=left;verticalAlign=top;spacingLeft=4;spacingRight=4;overflow=hidden;rotatable=0;points=[[0,0.5],[1,0.5]];portConstraint=eastwest;fontSize=14;" vertex="1" parent="GIDhicsu1I7y92ZXzIni-11">
                    <mxGeometry y="52" width="140" height="26" as="geometry"/>
                </mxCell>
                <mxCell id="GIDhicsu1I7y92ZXzIni-14" style="edgeStyle=orthogonalEdgeStyle;html=1;exitX=1;exitY=0.5;exitDx=0;exitDy=0;entryX=-0.021;entryY=0.115;entryDx=0;entryDy=0;entryPerimeter=0;fontSize=16;fontColor=#2dd421;" edge="1" parent="1" source="GIDhicsu1I7y92ZXzIni-13" target="GIDhicsu1I7y92ZXzIni-4">
                    <mxGeometry relative="1" as="geometry">
                        <Array as="points">
                            <mxPoint x="1070" y="1195"/>
                            <mxPoint x="1070" y="1139"/>
                        </Array>
                    </mxGeometry>
                </mxCell>
                <mxCell id="GIDhicsu1I7y92ZXzIni-15" style="edgeStyle=orthogonalEdgeStyle;html=1;exitX=0;exitY=0.5;exitDx=0;exitDy=0;entryX=0.471;entryY=1.038;entryDx=0;entryDy=0;entryPerimeter=0;fontSize=16;fontColor=#2dd421;" edge="1" parent="1" source="GIDhicsu1I7y92ZXzIni-5" target="GIDhicsu1I7y92ZXzIni-13">
                    <mxGeometry relative="1" as="geometry">
                        <Array as="points">
                            <mxPoint x="1080" y="1169"/>
                            <mxPoint x="1080" y="1230"/>
                            <mxPoint x="976" y="1230"/>
                        </Array>
                    </mxGeometry>
                </mxCell>
                <mxCell id="GIDhicsu1I7y92ZXzIni-16" value="Node" style="swimlane;fontStyle=0;childLayout=stackLayout;horizontal=1;startSize=26;fillColor=none;horizontalStack=0;resizeParent=1;resizeParentMax=0;resizeLast=0;collapsible=1;marginBottom=0;fontSize=14;" vertex="1" parent="1">
                    <mxGeometry x="1275" y="1300" width="140" height="78" as="geometry"/>
                </mxCell>
                <mxCell id="GIDhicsu1I7y92ZXzIni-17" value="prev: Node " style="text;strokeColor=none;fillColor=none;align=left;verticalAlign=top;spacingLeft=4;spacingRight=4;overflow=hidden;rotatable=0;points=[[0,0.5],[1,0.5]];portConstraint=eastwest;fontSize=14;" vertex="1" parent="GIDhicsu1I7y92ZXzIni-16">
                    <mxGeometry y="26" width="140" height="26" as="geometry"/>
                </mxCell>
                <mxCell id="GIDhicsu1I7y92ZXzIni-18" value="next: Node" style="text;strokeColor=none;fillColor=none;align=left;verticalAlign=top;spacingLeft=4;spacingRight=4;overflow=hidden;rotatable=0;points=[[0,0.5],[1,0.5]];portConstraint=eastwest;fontSize=14;" vertex="1" parent="GIDhicsu1I7y92ZXzIni-16">
                    <mxGeometry y="52" width="140" height="26" as="geometry"/>
                </mxCell>
                <mxCell id="GIDhicsu1I7y92ZXzIni-22" style="edgeStyle=orthogonalEdgeStyle;html=1;exitX=1;exitY=0.5;exitDx=0;exitDy=0;entryX=0.993;entryY=0.154;entryDx=0;entryDy=0;entryPerimeter=0;fontSize=16;fontColor=#2dd421;" edge="1" parent="1" source="GIDhicsu1I7y92ZXzIni-17" target="GIDhicsu1I7y92ZXzIni-4">
                    <mxGeometry relative="1" as="geometry">
                        <Array as="points">
                            <mxPoint x="1450" y="1339"/>
                            <mxPoint x="1450" y="1142"/>
                        </Array>
                    </mxGeometry>
                </mxCell>
                <mxCell id="GIDhicsu1I7y92ZXzIni-23" style="edgeStyle=orthogonalEdgeStyle;html=1;exitX=1;exitY=0.5;exitDx=0;exitDy=0;entryX=0.5;entryY=0;entryDx=0;entryDy=0;fontSize=16;fontColor=#2dd421;" edge="1" parent="1" source="GIDhicsu1I7y92ZXzIni-6" target="GIDhicsu1I7y92ZXzIni-16">
                    <mxGeometry relative="1" as="geometry"/>
                </mxCell>
            </root>
        </mxGraphModel>
    </diagram>
    <diagram id="eimo9RbLeU8j0LPWjHyK" name="addWaiter">
        <mxGraphModel dx="1680" dy="1139" grid="1" gridSize="10" guides="1" tooltips="1" connect="1" arrows="1" fold="1" page="1" pageScale="1" pageWidth="850" pageHeight="1100" math="0" shadow="0">
            <root>
                <mxCell id="0"/>
                <mxCell id="1" parent="0"/>
                <mxCell id="x-CPDvdp4OWk2buD2e3R-1" value="&lt;div style=&quot;&quot;&gt;&lt;pre style=&quot;font-family:'Fira Code Medium',monospace;font-size:12.0pt;&quot;&gt;addWaiter(Node.&lt;span style=&quot;font-style: italic;&quot;&gt;EXCLUSIVE&lt;/span&gt;)&lt;/pre&gt;&lt;/div&gt;" style="swimlane;whiteSpace=wrap;html=1;fontSize=14;startSize=50;labelBackgroundColor=none;fontColor=default;labelBorderColor=none;" parent="1" vertex="1">
                    <mxGeometry x="250" y="540" width="1120" height="1420" as="geometry">
                        <mxRectangle x="270" y="650" width="290" height="60" as="alternateBounds"/>
                    </mxGeometry>
                </mxCell>
                <mxCell id="x-CPDvdp4OWk2buD2e3R-2" value="" style="edgeStyle=orthogonalEdgeStyle;html=1;fontSize=14;labelBackgroundColor=none;fontColor=default;labelBorderColor=none;" parent="x-CPDvdp4OWk2buD2e3R-1" source="x-CPDvdp4OWk2buD2e3R-3" target="x-CPDvdp4OWk2buD2e3R-6" edge="1">
                    <mxGeometry relative="1" as="geometry"/>
                </mxCell>
                <mxCell id="x-CPDvdp4OWk2buD2e3R-3" value="创建Node节点" style="rounded=0;whiteSpace=wrap;html=1;fontSize=14;labelBackgroundColor=none;fontColor=default;labelBorderColor=none;" parent="x-CPDvdp4OWk2buD2e3R-1" vertex="1">
                    <mxGeometry x="150" y="220" width="120" height="60" as="geometry"/>
                </mxCell>
                <mxCell id="x-CPDvdp4OWk2buD2e3R-4" value="" style="edgeStyle=orthogonalEdgeStyle;html=1;fontSize=14;labelBackgroundColor=none;fontColor=default;labelBorderColor=none;" parent="x-CPDvdp4OWk2buD2e3R-1" source="x-CPDvdp4OWk2buD2e3R-6" target="x-CPDvdp4OWk2buD2e3R-8" edge="1">
                    <mxGeometry relative="1" as="geometry"/>
                </mxCell>
                <mxCell id="x-CPDvdp4OWk2buD2e3R-5" value="Y" style="edgeLabel;html=1;align=center;verticalAlign=middle;resizable=0;points=[];fontSize=14;labelBackgroundColor=none;fontColor=default;labelBorderColor=none;" parent="x-CPDvdp4OWk2buD2e3R-4" vertex="1" connectable="0">
                    <mxGeometry x="-0.3273" y="-2" relative="1" as="geometry">
                        <mxPoint as="offset"/>
                    </mxGeometry>
                </mxCell>
                <mxCell id="x-CPDvdp4OWk2buD2e3R-6" value="尾节点是否存在？" style="rhombus;whiteSpace=wrap;html=1;fontSize=14;fillColor=default;rounded=0;labelBackgroundColor=none;fontColor=default;labelBorderColor=none;strokeColor=default;" parent="x-CPDvdp4OWk2buD2e3R-1" vertex="1">
                    <mxGeometry x="130" y="350" width="160" height="90" as="geometry"/>
                </mxCell>
                <mxCell id="x-CPDvdp4OWk2buD2e3R-7" style="edgeStyle=orthogonalEdgeStyle;html=1;exitX=0.5;exitY=1;exitDx=0;exitDy=0;entryX=0.5;entryY=0;entryDx=0;entryDy=0;fontSize=14;labelBackgroundColor=none;fontColor=default;labelBorderColor=none;" parent="x-CPDvdp4OWk2buD2e3R-1" source="x-CPDvdp4OWk2buD2e3R-8" target="x-CPDvdp4OWk2buD2e3R-10" edge="1">
                    <mxGeometry relative="1" as="geometry"/>
                </mxCell>
                <mxCell id="x-CPDvdp4OWk2buD2e3R-8" value="新节点前向连接尾节点" style="whiteSpace=wrap;html=1;fontSize=14;fillColor=default;rounded=0;labelBackgroundColor=none;fontColor=default;labelBorderColor=none;" parent="x-CPDvdp4OWk2buD2e3R-1" vertex="1">
                    <mxGeometry x="150" y="520" width="120" height="60" as="geometry"/>
                </mxCell>
                <mxCell id="x-CPDvdp4OWk2buD2e3R-9" style="edgeStyle=orthogonalEdgeStyle;html=1;exitX=0.5;exitY=1;exitDx=0;exitDy=0;entryX=0.5;entryY=0;entryDx=0;entryDy=0;fontSize=14;labelBackgroundColor=none;fontColor=default;labelBorderColor=none;" parent="x-CPDvdp4OWk2buD2e3R-1" source="x-CPDvdp4OWk2buD2e3R-10" target="x-CPDvdp4OWk2buD2e3R-13" edge="1">
                    <mxGeometry relative="1" as="geometry"/>
                </mxCell>
                <mxCell id="x-CPDvdp4OWk2buD2e3R-10" value="&lt;pre style=&quot;font-family: &amp;quot;Fira Code Medium&amp;quot;, monospace;&quot;&gt;&lt;span style=&quot;white-space: normal;&quot;&gt;&lt;font style=&quot;font-size: 14px;&quot;&gt;新节点设置为尾节点&lt;/font&gt;&lt;/span&gt;&lt;span style=&quot;font-size: 12pt;&quot;&gt;&lt;br&gt;&lt;/span&gt;&lt;/pre&gt;" style="shape=process;whiteSpace=wrap;html=1;backgroundOutline=1;fontSize=16;fontColor=default;labelBackgroundColor=none;labelBorderColor=none;fillColor=default;strokeColor=default;" parent="x-CPDvdp4OWk2buD2e3R-1" vertex="1">
                    <mxGeometry x="150" y="640" width="120" height="60" as="geometry"/>
                </mxCell>
                <mxCell id="x-CPDvdp4OWk2buD2e3R-11" value="" style="edgeStyle=orthogonalEdgeStyle;html=1;labelBackgroundColor=none;fontColor=default;labelBorderColor=none;" parent="x-CPDvdp4OWk2buD2e3R-1" source="x-CPDvdp4OWk2buD2e3R-13" target="x-CPDvdp4OWk2buD2e3R-15" edge="1">
                    <mxGeometry relative="1" as="geometry"/>
                </mxCell>
                <mxCell id="x-CPDvdp4OWk2buD2e3R-12" value="&lt;font style=&quot;font-size: 14px;&quot;&gt;Y&lt;/font&gt;" style="edgeLabel;html=1;align=center;verticalAlign=middle;resizable=0;points=[];labelBackgroundColor=none;fontColor=default;labelBorderColor=none;" parent="x-CPDvdp4OWk2buD2e3R-11" vertex="1" connectable="0">
                    <mxGeometry x="-0.325" y="1" relative="1" as="geometry">
                        <mxPoint as="offset"/>
                    </mxGeometry>
                </mxCell>
                <mxCell id="x-CPDvdp4OWk2buD2e3R-13" value="设置成功？" style="rhombus;whiteSpace=wrap;html=1;labelBackgroundColor=none;fontColor=default;labelBorderColor=none;" parent="x-CPDvdp4OWk2buD2e3R-1" vertex="1">
                    <mxGeometry x="130" y="760" width="160" height="80" as="geometry"/>
                </mxCell>
                <mxCell id="x-CPDvdp4OWk2buD2e3R-14" value="" style="edgeStyle=orthogonalEdgeStyle;html=1;fontSize=14;labelBackgroundColor=none;fontColor=default;labelBorderColor=none;" parent="x-CPDvdp4OWk2buD2e3R-1" source="x-CPDvdp4OWk2buD2e3R-15" target="x-CPDvdp4OWk2buD2e3R-17" edge="1">
                    <mxGeometry relative="1" as="geometry"/>
                </mxCell>
                <mxCell id="x-CPDvdp4OWk2buD2e3R-15" value="之前尾节点后向连接新节点" style="whiteSpace=wrap;html=1;labelBackgroundColor=none;fontColor=default;labelBorderColor=none;" parent="x-CPDvdp4OWk2buD2e3R-1" vertex="1">
                    <mxGeometry x="150" y="920" width="120" height="60" as="geometry"/>
                </mxCell>
                <mxCell id="x-CPDvdp4OWk2buD2e3R-16" value="" style="edgeStyle=orthogonalEdgeStyle;html=1;fontSize=14;labelBackgroundColor=none;fontColor=default;labelBorderColor=none;" parent="x-CPDvdp4OWk2buD2e3R-1" source="x-CPDvdp4OWk2buD2e3R-17" target="x-CPDvdp4OWk2buD2e3R-18" edge="1">
                    <mxGeometry relative="1" as="geometry"/>
                </mxCell>
                <mxCell id="x-CPDvdp4OWk2buD2e3R-17" value="返回当新节点" style="whiteSpace=wrap;html=1;labelBackgroundColor=none;fontColor=default;labelBorderColor=none;" parent="x-CPDvdp4OWk2buD2e3R-1" vertex="1">
                    <mxGeometry x="150" y="1060" width="120" height="60" as="geometry"/>
                </mxCell>
                <mxCell id="x-CPDvdp4OWk2buD2e3R-18" value="" style="ellipse;whiteSpace=wrap;html=1;labelBackgroundColor=none;fontColor=default;labelBorderColor=none;" parent="x-CPDvdp4OWk2buD2e3R-1" vertex="1">
                    <mxGeometry x="170" y="1190" width="80" height="80" as="geometry"/>
                </mxCell>
                <mxCell id="x-CPDvdp4OWk2buD2e3R-19" style="edgeStyle=orthogonalEdgeStyle;html=1;entryX=0.5;entryY=0;entryDx=0;entryDy=0;fontSize=14;labelBackgroundColor=none;fontColor=default;labelBorderColor=none;" parent="x-CPDvdp4OWk2buD2e3R-1" source="x-CPDvdp4OWk2buD2e3R-20" target="x-CPDvdp4OWk2buD2e3R-3" edge="1">
                    <mxGeometry relative="1" as="geometry"/>
                </mxCell>
                <mxCell id="x-CPDvdp4OWk2buD2e3R-20" value="" style="ellipse;whiteSpace=wrap;html=1;aspect=fixed;fontSize=14;labelBackgroundColor=none;fontColor=default;labelBorderColor=none;" parent="x-CPDvdp4OWk2buD2e3R-1" vertex="1">
                    <mxGeometry x="170" y="90" width="80" height="80" as="geometry"/>
                </mxCell>
                <mxCell id="x-CPDvdp4OWk2buD2e3R-21" value="" style="edgeStyle=orthogonalEdgeStyle;html=1;fontSize=14;entryX=0.5;entryY=0;entryDx=0;entryDy=0;labelBackgroundColor=none;fontColor=default;labelBorderColor=none;" parent="x-CPDvdp4OWk2buD2e3R-1" source="x-CPDvdp4OWk2buD2e3R-6" target="x-CPDvdp4OWk2buD2e3R-24" edge="1">
                    <mxGeometry relative="1" as="geometry">
                        <mxPoint x="580" y="510" as="targetPoint"/>
                        <Array as="points">
                            <mxPoint x="340" y="395"/>
                            <mxPoint x="340" y="70"/>
                            <mxPoint x="675" y="70"/>
                        </Array>
                    </mxGeometry>
                </mxCell>
                <mxCell id="x-CPDvdp4OWk2buD2e3R-22" value="N" style="edgeLabel;html=1;align=center;verticalAlign=middle;resizable=0;points=[];fontSize=14;labelBackgroundColor=none;fontColor=default;labelBorderColor=none;" parent="x-CPDvdp4OWk2buD2e3R-21" vertex="1" connectable="0">
                    <mxGeometry x="-0.28" y="-1" relative="1" as="geometry">
                        <mxPoint y="169" as="offset"/>
                    </mxGeometry>
                </mxCell>
                <mxCell id="x-CPDvdp4OWk2buD2e3R-23" style="edgeStyle=orthogonalEdgeStyle;html=1;exitX=0.5;exitY=1;exitDx=0;exitDy=0;entryX=1;entryY=0.5;entryDx=0;entryDy=0;fontSize=14;labelBackgroundColor=none;fontColor=default;labelBorderColor=none;" parent="x-CPDvdp4OWk2buD2e3R-1" source="x-CPDvdp4OWk2buD2e3R-24" target="x-CPDvdp4OWk2buD2e3R-17" edge="1">
                    <mxGeometry relative="1" as="geometry"/>
                </mxCell>
                <mxCell id="x-CPDvdp4OWk2buD2e3R-24" value="enq" style="swimlane;whiteSpace=wrap;html=1;fontSize=14;labelBackgroundColor=none;fontColor=default;labelBorderColor=none;" parent="x-CPDvdp4OWk2buD2e3R-1" vertex="1">
                    <mxGeometry x="390" y="120" width="570" height="900" as="geometry">
                        <mxRectangle x="390" y="120" width="70" height="30" as="alternateBounds"/>
                    </mxGeometry>
                </mxCell>
                <mxCell id="x-CPDvdp4OWk2buD2e3R-25" value="头节点赋值给尾节点" style="whiteSpace=wrap;html=1;fontSize=14;labelBackgroundColor=none;fontColor=default;labelBorderColor=none;" parent="x-CPDvdp4OWk2buD2e3R-24" vertex="1">
                    <mxGeometry x="146" y="420" width="120" height="60" as="geometry"/>
                </mxCell>
                <mxCell id="x-CPDvdp4OWk2buD2e3R-26" value="尾节点是否存在？" style="rhombus;whiteSpace=wrap;html=1;fontSize=14;labelBackgroundColor=none;fontColor=default;labelBorderColor=none;" parent="x-CPDvdp4OWk2buD2e3R-24" vertex="1">
                    <mxGeometry x="136" y="150" width="140" height="80" as="geometry"/>
                </mxCell>
                <mxCell id="x-CPDvdp4OWk2buD2e3R-27" value="创建空节点，并设置为头节点" style="shape=process;whiteSpace=wrap;html=1;backgroundOutline=1;fontSize=14;labelBackgroundColor=none;fontColor=default;labelBorderColor=none;" parent="x-CPDvdp4OWk2buD2e3R-24" vertex="1">
                    <mxGeometry x="146" y="290" width="120" height="60" as="geometry"/>
                </mxCell>
                <mxCell id="x-CPDvdp4OWk2buD2e3R-28" value="" style="edgeStyle=orthogonalEdgeStyle;html=1;fontSize=14;exitX=0.5;exitY=1;exitDx=0;exitDy=0;labelBackgroundColor=none;fontColor=default;labelBorderColor=none;" parent="x-CPDvdp4OWk2buD2e3R-24" source="x-CPDvdp4OWk2buD2e3R-27" target="x-CPDvdp4OWk2buD2e3R-25" edge="1">
                    <mxGeometry relative="1" as="geometry">
                        <mxPoint x="206" y="350" as="sourcePoint"/>
                    </mxGeometry>
                </mxCell>
                <mxCell id="x-CPDvdp4OWk2buD2e3R-29" value="" style="edgeStyle=orthogonalEdgeStyle;html=1;fontSize=14;entryX=0.5;entryY=0;entryDx=0;entryDy=0;labelBackgroundColor=none;fontColor=default;labelBorderColor=none;" parent="x-CPDvdp4OWk2buD2e3R-24" source="x-CPDvdp4OWk2buD2e3R-26" target="x-CPDvdp4OWk2buD2e3R-27" edge="1">
                    <mxGeometry relative="1" as="geometry">
                        <mxPoint x="206" y="280" as="targetPoint"/>
                    </mxGeometry>
                </mxCell>
                <mxCell id="x-CPDvdp4OWk2buD2e3R-30" value="Y" style="edgeLabel;html=1;align=center;verticalAlign=middle;resizable=0;points=[];fontSize=14;labelBackgroundColor=none;fontColor=default;labelBorderColor=none;" parent="x-CPDvdp4OWk2buD2e3R-29" vertex="1" connectable="0">
                    <mxGeometry x="-0.2308" relative="1" as="geometry">
                        <mxPoint as="offset"/>
                    </mxGeometry>
                </mxCell>
                <mxCell id="x-CPDvdp4OWk2buD2e3R-31" value="&lt;pre style=&quot;font-family: &amp;quot;Fira Code Medium&amp;quot;, monospace;&quot;&gt;&lt;span style=&quot;white-space: normal;&quot;&gt;&lt;font style=&quot;font-size: 14px;&quot;&gt;新节点设置为尾节点&lt;/font&gt;&lt;/span&gt;&lt;span style=&quot;font-size: 12pt;&quot;&gt;&lt;br&gt;&lt;/span&gt;&lt;/pre&gt;" style="shape=process;whiteSpace=wrap;html=1;backgroundOutline=1;fontSize=16;fontColor=default;labelBackgroundColor=none;labelBorderColor=none;" parent="x-CPDvdp4OWk2buD2e3R-24" vertex="1">
                    <mxGeometry x="336" y="280" width="120" height="60" as="geometry"/>
                </mxCell>
                <mxCell id="x-CPDvdp4OWk2buD2e3R-32" value="" style="edgeStyle=orthogonalEdgeStyle;html=1;fontSize=14;entryX=0.5;entryY=0;entryDx=0;entryDy=0;labelBackgroundColor=none;fontColor=default;labelBorderColor=none;" parent="x-CPDvdp4OWk2buD2e3R-24" source="x-CPDvdp4OWk2buD2e3R-26" target="x-CPDvdp4OWk2buD2e3R-31" edge="1">
                    <mxGeometry relative="1" as="geometry">
                        <mxPoint x="406" y="280" as="targetPoint"/>
                    </mxGeometry>
                </mxCell>
                <mxCell id="x-CPDvdp4OWk2buD2e3R-33" value="Y" style="edgeLabel;html=1;align=center;verticalAlign=middle;resizable=0;points=[];fontSize=14;labelBackgroundColor=none;fontColor=default;labelBorderColor=none;" parent="x-CPDvdp4OWk2buD2e3R-32" vertex="1" connectable="0">
                    <mxGeometry x="-0.1333" y="1" relative="1" as="geometry">
                        <mxPoint as="offset"/>
                    </mxGeometry>
                </mxCell>
                <mxCell id="x-CPDvdp4OWk2buD2e3R-34" style="edgeStyle=orthogonalEdgeStyle;html=1;exitX=1;exitY=0.5;exitDx=0;exitDy=0;entryX=0.5;entryY=0;entryDx=0;entryDy=0;fontSize=14;labelBackgroundColor=none;fontColor=default;labelBorderColor=none;" parent="x-CPDvdp4OWk2buD2e3R-24" source="x-CPDvdp4OWk2buD2e3R-36" target="x-CPDvdp4OWk2buD2e3R-26" edge="1">
                    <mxGeometry relative="1" as="geometry">
                        <Array as="points">
                            <mxPoint x="540" y="440"/>
                            <mxPoint x="540" y="130"/>
                            <mxPoint x="206" y="130"/>
                        </Array>
                    </mxGeometry>
                </mxCell>
                <mxCell id="x-CPDvdp4OWk2buD2e3R-35" value="N" style="edgeLabel;html=1;align=center;verticalAlign=middle;resizable=0;points=[];fontSize=14;labelBackgroundColor=none;fontColor=default;labelBorderColor=none;" parent="x-CPDvdp4OWk2buD2e3R-34" vertex="1" connectable="0">
                    <mxGeometry x="-0.9588" y="-2" relative="1" as="geometry">
                        <mxPoint as="offset"/>
                    </mxGeometry>
                </mxCell>
                <mxCell id="x-CPDvdp4OWk2buD2e3R-36" value="设置成功？" style="rhombus;whiteSpace=wrap;html=1;labelBackgroundColor=none;fontColor=default;labelBorderColor=none;" parent="x-CPDvdp4OWk2buD2e3R-24" vertex="1">
                    <mxGeometry x="316" y="400" width="160" height="80" as="geometry"/>
                </mxCell>
                <mxCell id="x-CPDvdp4OWk2buD2e3R-37" value="之前尾节点后向连接新节点" style="whiteSpace=wrap;html=1;labelBackgroundColor=none;fontColor=default;labelBorderColor=none;" parent="x-CPDvdp4OWk2buD2e3R-24" vertex="1">
                    <mxGeometry x="336" y="560" width="120" height="60" as="geometry"/>
                </mxCell>
                <mxCell id="x-CPDvdp4OWk2buD2e3R-38" value="" style="edgeStyle=orthogonalEdgeStyle;html=1;fontSize=14;labelBackgroundColor=none;fontColor=default;labelBorderColor=none;" parent="x-CPDvdp4OWk2buD2e3R-24" source="x-CPDvdp4OWk2buD2e3R-31" target="x-CPDvdp4OWk2buD2e3R-36" edge="1">
                    <mxGeometry relative="1" as="geometry"/>
                </mxCell>
                <mxCell id="x-CPDvdp4OWk2buD2e3R-39" value="" style="edgeStyle=orthogonalEdgeStyle;html=1;labelBackgroundColor=none;fontColor=default;labelBorderColor=none;" parent="x-CPDvdp4OWk2buD2e3R-24" source="x-CPDvdp4OWk2buD2e3R-36" target="x-CPDvdp4OWk2buD2e3R-37" edge="1">
                    <mxGeometry relative="1" as="geometry"/>
                </mxCell>
                <mxCell id="x-CPDvdp4OWk2buD2e3R-40" value="&lt;font style=&quot;font-size: 14px;&quot;&gt;Y&lt;/font&gt;" style="edgeLabel;html=1;align=center;verticalAlign=middle;resizable=0;points=[];labelBackgroundColor=none;fontColor=default;labelBorderColor=none;" parent="x-CPDvdp4OWk2buD2e3R-39" vertex="1" connectable="0">
                    <mxGeometry x="-0.325" y="1" relative="1" as="geometry">
                        <mxPoint as="offset"/>
                    </mxGeometry>
                </mxCell>
                <mxCell id="x-CPDvdp4OWk2buD2e3R-41" value="" style="edgeStyle=orthogonalEdgeStyle;html=1;fontSize=14;labelBackgroundColor=none;fontColor=default;labelBorderColor=none;" parent="x-CPDvdp4OWk2buD2e3R-24" source="x-CPDvdp4OWk2buD2e3R-42" target="x-CPDvdp4OWk2buD2e3R-45" edge="1">
                    <mxGeometry relative="1" as="geometry"/>
                </mxCell>
                <mxCell id="x-CPDvdp4OWk2buD2e3R-42" value="返回当新节点的前一个节点" style="whiteSpace=wrap;html=1;labelBackgroundColor=none;fontColor=default;labelBorderColor=none;" parent="x-CPDvdp4OWk2buD2e3R-24" vertex="1">
                    <mxGeometry x="336" y="690" width="120" height="60" as="geometry"/>
                </mxCell>
                <mxCell id="x-CPDvdp4OWk2buD2e3R-43" value="" style="edgeStyle=orthogonalEdgeStyle;html=1;fontSize=14;labelBackgroundColor=none;fontColor=default;labelBorderColor=none;" parent="x-CPDvdp4OWk2buD2e3R-24" source="x-CPDvdp4OWk2buD2e3R-37" target="x-CPDvdp4OWk2buD2e3R-42" edge="1">
                    <mxGeometry relative="1" as="geometry"/>
                </mxCell>
                <mxCell id="x-CPDvdp4OWk2buD2e3R-44" style="edgeStyle=orthogonalEdgeStyle;html=1;exitX=0.5;exitY=1;exitDx=0;exitDy=0;fontSize=14;entryX=0;entryY=0.5;entryDx=0;entryDy=0;labelBackgroundColor=none;fontColor=default;labelBorderColor=none;" parent="x-CPDvdp4OWk2buD2e3R-24" source="x-CPDvdp4OWk2buD2e3R-25" target="x-CPDvdp4OWk2buD2e3R-26" edge="1">
                    <mxGeometry relative="1" as="geometry">
                        <mxPoint x="26" y="170" as="targetPoint"/>
                        <Array as="points">
                            <mxPoint x="206" y="510"/>
                            <mxPoint x="46" y="510"/>
                            <mxPoint x="46" y="190"/>
                        </Array>
                    </mxGeometry>
                </mxCell>
                <mxCell id="x-CPDvdp4OWk2buD2e3R-45" value="" style="ellipse;whiteSpace=wrap;html=1;labelBackgroundColor=none;fontColor=default;labelBorderColor=none;" parent="x-CPDvdp4OWk2buD2e3R-24" vertex="1">
                    <mxGeometry x="356" y="790" width="80" height="80" as="geometry"/>
                </mxCell>
                <mxCell id="x-CPDvdp4OWk2buD2e3R-46" value="" style="edgeStyle=orthogonalEdgeStyle;html=1;fontSize=14;labelBackgroundColor=none;fontColor=default;labelBorderColor=none;" parent="x-CPDvdp4OWk2buD2e3R-24" source="x-CPDvdp4OWk2buD2e3R-47" target="x-CPDvdp4OWk2buD2e3R-26" edge="1">
                    <mxGeometry relative="1" as="geometry"/>
                </mxCell>
                <mxCell id="x-CPDvdp4OWk2buD2e3R-47" value="" style="ellipse;whiteSpace=wrap;html=1;aspect=fixed;fontSize=14;labelBackgroundColor=none;fontColor=default;labelBorderColor=none;" parent="x-CPDvdp4OWk2buD2e3R-24" vertex="1">
                    <mxGeometry x="166" y="40" width="80" height="80" as="geometry"/>
                </mxCell>
                <mxCell id="5nDD9t8ZRpSm8tpqrGTt-1" value="Node" style="swimlane;fontStyle=0;childLayout=stackLayout;horizontal=1;startSize=26;fillColor=none;horizontalStack=0;resizeParent=1;resizeParentMax=0;resizeLast=0;collapsible=1;marginBottom=0;fontSize=14;labelBackgroundColor=none;fontColor=default;labelBorderColor=none;" parent="1" vertex="1">
                    <mxGeometry x="450" y="140" width="140" height="78" as="geometry"/>
                </mxCell>
                <mxCell id="5nDD9t8ZRpSm8tpqrGTt-2" value="prev: Node " style="text;strokeColor=none;fillColor=none;align=left;verticalAlign=top;spacingLeft=4;spacingRight=4;overflow=hidden;rotatable=0;points=[[0,0.5],[1,0.5]];portConstraint=eastwest;fontSize=14;labelBackgroundColor=none;fontColor=default;labelBorderColor=none;" parent="5nDD9t8ZRpSm8tpqrGTt-1" vertex="1">
                    <mxGeometry y="26" width="140" height="26" as="geometry"/>
                </mxCell>
                <mxCell id="5nDD9t8ZRpSm8tpqrGTt-3" value="next: Node" style="text;strokeColor=none;fillColor=none;align=left;verticalAlign=top;spacingLeft=4;spacingRight=4;overflow=hidden;rotatable=0;points=[[0,0.5],[1,0.5]];portConstraint=eastwest;fontSize=14;labelBackgroundColor=none;fontColor=default;labelBorderColor=none;" parent="5nDD9t8ZRpSm8tpqrGTt-1" vertex="1">
                    <mxGeometry y="52" width="140" height="26" as="geometry"/>
                </mxCell>
                <mxCell id="5nDD9t8ZRpSm8tpqrGTt-4" value="&lt;blockquote style=&quot;margin: 0 0 0 40px; border: none; padding: 0px;&quot;&gt;&lt;font style=&quot;font-size: 16px;&quot;&gt;&lt;b&gt;&lt;i&gt;tail&lt;/i&gt;&lt;/b&gt;&lt;/font&gt;&lt;/blockquote&gt;" style="shape=singleArrow;direction=south;whiteSpace=wrap;html=1;fontSize=14;labelBackgroundColor=none;fontColor=default;labelBorderColor=none;" parent="1" vertex="1">
                    <mxGeometry x="500" y="40" width="40" height="100" as="geometry"/>
                </mxCell>
                <object label="Node" id="5nDD9t8ZRpSm8tpqrGTt-5">
                    <mxCell style="swimlane;fontStyle=0;childLayout=stackLayout;horizontal=1;startSize=26;fillColor=none;horizontalStack=0;resizeParent=1;resizeParentMax=0;resizeLast=0;collapsible=1;marginBottom=0;fontSize=14;labelBackgroundColor=none;fontColor=default;labelBorderColor=none;" parent="1" vertex="1">
                        <mxGeometry x="250" y="140" width="140" height="78" as="geometry"/>
                    </mxCell>
                </object>
                <mxCell id="5nDD9t8ZRpSm8tpqrGTt-6" value="prev: Node " style="text;strokeColor=none;fillColor=none;align=left;verticalAlign=top;spacingLeft=4;spacingRight=4;overflow=hidden;rotatable=0;points=[[0,0.5],[1,0.5]];portConstraint=eastwest;fontSize=14;labelBackgroundColor=none;fontColor=default;labelBorderColor=none;" parent="5nDD9t8ZRpSm8tpqrGTt-5" vertex="1">
                    <mxGeometry y="26" width="140" height="26" as="geometry"/>
                </mxCell>
                <mxCell id="5nDD9t8ZRpSm8tpqrGTt-7" value="next: Node" style="text;strokeColor=none;fillColor=none;align=left;verticalAlign=top;spacingLeft=4;spacingRight=4;overflow=hidden;rotatable=0;points=[[0,0.5],[1,0.5]];portConstraint=eastwest;fontSize=14;labelBackgroundColor=none;fontColor=default;labelBorderColor=none;" parent="5nDD9t8ZRpSm8tpqrGTt-5" vertex="1">
                    <mxGeometry y="52" width="140" height="26" as="geometry"/>
                </mxCell>
                <mxCell id="5nDD9t8ZRpSm8tpqrGTt-8" style="edgeStyle=orthogonalEdgeStyle;html=1;exitX=1;exitY=0.5;exitDx=0;exitDy=0;entryX=-0.021;entryY=0.115;entryDx=0;entryDy=0;entryPerimeter=0;fontSize=16;fontColor=default;labelBackgroundColor=none;labelBorderColor=none;" parent="1" source="5nDD9t8ZRpSm8tpqrGTt-7" target="5nDD9t8ZRpSm8tpqrGTt-1" edge="1">
                    <mxGeometry relative="1" as="geometry">
                        <Array as="points">
                            <mxPoint x="410" y="205"/>
                            <mxPoint x="410" y="149"/>
                        </Array>
                    </mxGeometry>
                </mxCell>
                <mxCell id="5nDD9t8ZRpSm8tpqrGTt-9" style="edgeStyle=orthogonalEdgeStyle;html=1;exitX=0;exitY=0.5;exitDx=0;exitDy=0;entryX=0.471;entryY=1.038;entryDx=0;entryDy=0;entryPerimeter=0;fontSize=16;fontColor=default;labelBackgroundColor=none;labelBorderColor=none;" parent="1" source="5nDD9t8ZRpSm8tpqrGTt-2" target="5nDD9t8ZRpSm8tpqrGTt-7" edge="1">
                    <mxGeometry relative="1" as="geometry">
                        <Array as="points">
                            <mxPoint x="420" y="179"/>
                            <mxPoint x="420" y="240"/>
                            <mxPoint x="316" y="240"/>
                        </Array>
                    </mxGeometry>
                </mxCell>
                <mxCell id="5nDD9t8ZRpSm8tpqrGTt-10" value="Node" style="swimlane;fontStyle=0;childLayout=stackLayout;horizontal=1;startSize=26;fillColor=none;horizontalStack=0;resizeParent=1;resizeParentMax=0;resizeLast=0;collapsible=1;marginBottom=0;fontSize=14;labelBackgroundColor=none;fontColor=default;labelBorderColor=none;" parent="1" vertex="1">
                    <mxGeometry x="615" y="310" width="140" height="78" as="geometry"/>
                </mxCell>
                <mxCell id="5nDD9t8ZRpSm8tpqrGTt-11" value="prev: Node " style="text;strokeColor=none;fillColor=none;align=left;verticalAlign=top;spacingLeft=4;spacingRight=4;overflow=hidden;rotatable=0;points=[[0,0.5],[1,0.5]];portConstraint=eastwest;fontSize=14;labelBackgroundColor=none;fontColor=default;labelBorderColor=none;" parent="5nDD9t8ZRpSm8tpqrGTt-10" vertex="1">
                    <mxGeometry y="26" width="140" height="26" as="geometry"/>
                </mxCell>
                <mxCell id="5nDD9t8ZRpSm8tpqrGTt-12" value="next: Node" style="text;strokeColor=none;fillColor=none;align=left;verticalAlign=top;spacingLeft=4;spacingRight=4;overflow=hidden;rotatable=0;points=[[0,0.5],[1,0.5]];portConstraint=eastwest;fontSize=14;labelBackgroundColor=none;fontColor=default;labelBorderColor=none;" parent="5nDD9t8ZRpSm8tpqrGTt-10" vertex="1">
                    <mxGeometry y="52" width="140" height="26" as="geometry"/>
                </mxCell>
                <mxCell id="5nDD9t8ZRpSm8tpqrGTt-13" style="edgeStyle=orthogonalEdgeStyle;html=1;exitX=1;exitY=0.5;exitDx=0;exitDy=0;entryX=0.993;entryY=0.154;entryDx=0;entryDy=0;entryPerimeter=0;fontSize=16;fontColor=default;labelBackgroundColor=none;labelBorderColor=none;" parent="1" source="5nDD9t8ZRpSm8tpqrGTt-11" target="5nDD9t8ZRpSm8tpqrGTt-1" edge="1">
                    <mxGeometry relative="1" as="geometry">
                        <Array as="points">
                            <mxPoint x="790" y="349"/>
                            <mxPoint x="790" y="152"/>
                        </Array>
                    </mxGeometry>
                </mxCell>
                <mxCell id="5nDD9t8ZRpSm8tpqrGTt-14" style="edgeStyle=orthogonalEdgeStyle;html=1;exitX=1;exitY=0.5;exitDx=0;exitDy=0;entryX=0.5;entryY=0;entryDx=0;entryDy=0;fontSize=16;fontColor=default;labelBackgroundColor=none;labelBorderColor=none;" parent="1" source="5nDD9t8ZRpSm8tpqrGTt-3" target="5nDD9t8ZRpSm8tpqrGTt-10" edge="1">
                    <mxGeometry relative="1" as="geometry"/>
                </mxCell>
                <mxCell id="5nDD9t8ZRpSm8tpqrGTt-19" value="&lt;blockquote style=&quot;margin: 0 0 0 40px; border: none; padding: 0px;&quot;&gt;&lt;font style=&quot;font-size: 16px;&quot;&gt;&lt;b&gt;&lt;i&gt;head&lt;/i&gt;&lt;/b&gt;&lt;/font&gt;&lt;/blockquote&gt;" style="shape=singleArrow;direction=south;whiteSpace=wrap;html=1;fontSize=14;labelBackgroundColor=none;fontColor=default;labelBorderColor=none;" parent="1" vertex="1">
                    <mxGeometry x="300" y="40" width="40" height="100" as="geometry"/>
                </mxCell>
            </root>
        </mxGraphModel>
    </diagram>
    <diagram id="ZMj_oVuZkOGbo49UZIVn" name="Page-4">
        <mxGraphModel dx="2530" dy="1139" grid="1" gridSize="10" guides="1" tooltips="1" connect="1" arrows="1" fold="1" page="1" pageScale="1" pageWidth="850" pageHeight="1100" math="0" shadow="0">
            <root>
                <mxCell id="0"/>
                <mxCell id="1" parent="0"/>
                <mxCell id="x913bU7WObBUGSDpKqUo-1" value="&lt;div style=&quot;color: rgb(217, 232, 247); background-color: rgb(32, 32, 32); font-family: &amp;quot;Fira Code Retina&amp;quot;, &amp;quot;Courier New&amp;quot;, monospace, Consolas, &amp;quot;Courier New&amp;quot;, monospace; line-height: 22px;&quot;&gt;&lt;div&gt;&amp;lt;&lt;span style=&quot;color: #dd2867;font-weight: bold;&quot;&gt;shape&lt;/span&gt; &lt;span style=&quot;color: #79abff;&quot;&gt;name&lt;/span&gt;=&lt;span style=&quot;color: #17c6a3;&quot;&gt;&quot;node&quot;&lt;/span&gt; &lt;span style=&quot;color: #79abff;&quot;&gt;h&lt;/span&gt;=&lt;span style=&quot;color: #17c6a3;&quot;&gt;&quot;50&quot;&lt;/span&gt; &lt;span style=&quot;color: #79abff;&quot;&gt;w&lt;/span&gt;=&lt;span style=&quot;color: #17c6a3;&quot;&gt;&quot;150&quot;&lt;/span&gt; &lt;span style=&quot;color: #79abff;&quot;&gt;aspect&lt;/span&gt;=&lt;span style=&quot;color: #17c6a3;&quot;&gt;&quot;fixed&quot;&lt;/span&gt; &lt;span style=&quot;color: #79abff;&quot;&gt;strokewidth&lt;/span&gt;=&lt;span style=&quot;color: #17c6a3;&quot;&gt;&quot;inherit&quot;&lt;/span&gt;&amp;gt;&lt;/div&gt;&lt;div&gt;&amp;nbsp; &amp;lt;&lt;span style=&quot;color: #dd2867;font-weight: bold;&quot;&gt;connections&lt;/span&gt;&amp;gt;&lt;/div&gt;&lt;div&gt;&amp;nbsp; &amp;nbsp; &amp;lt;&lt;span style=&quot;color: #dd2867;font-weight: bold;&quot;&gt;constraint&lt;/span&gt; &lt;span style=&quot;color: #79abff;&quot;&gt;x&lt;/span&gt;=&lt;span style=&quot;color: #17c6a3;&quot;&gt;&quot;0.5&quot;&lt;/span&gt; &lt;span style=&quot;color: #79abff;&quot;&gt;y&lt;/span&gt;=&lt;span style=&quot;color: #17c6a3;&quot;&gt;&quot;0&quot;&lt;/span&gt; &lt;span style=&quot;color: #79abff;&quot;&gt;perimeter&lt;/span&gt;=&lt;span style=&quot;color: #17c6a3;&quot;&gt;&quot;0&quot;&lt;/span&gt; &lt;span style=&quot;color: #79abff;&quot;&gt;name&lt;/span&gt;=&lt;span style=&quot;color: #17c6a3;&quot;&gt;&quot;N&quot;&lt;/span&gt;/&amp;gt;&lt;/div&gt;&lt;div&gt;&amp;nbsp; &amp;nbsp; &amp;lt;&lt;span style=&quot;color: #dd2867;font-weight: bold;&quot;&gt;constraint&lt;/span&gt; &lt;span style=&quot;color: #79abff;&quot;&gt;x&lt;/span&gt;=&lt;span style=&quot;color: #17c6a3;&quot;&gt;&quot;0.5&quot;&lt;/span&gt; &lt;span style=&quot;color: #79abff;&quot;&gt;y&lt;/span&gt;=&lt;span style=&quot;color: #17c6a3;&quot;&gt;&quot;1&quot;&lt;/span&gt; &lt;span style=&quot;color: #79abff;&quot;&gt;perimeter&lt;/span&gt;=&lt;span style=&quot;color: #17c6a3;&quot;&gt;&quot;0&quot;&lt;/span&gt; &lt;span style=&quot;color: #79abff;&quot;&gt;name&lt;/span&gt;=&lt;span style=&quot;color: #17c6a3;&quot;&gt;&quot;S&quot;&lt;/span&gt;/&amp;gt;&lt;/div&gt;&lt;div&gt;&amp;nbsp; &amp;nbsp; &amp;lt;&lt;span style=&quot;color: #dd2867;font-weight: bold;&quot;&gt;constraint&lt;/span&gt; &lt;span style=&quot;color: #79abff;&quot;&gt;x&lt;/span&gt;=&lt;span style=&quot;color: #17c6a3;&quot;&gt;&quot;0&quot;&lt;/span&gt; &lt;span style=&quot;color: #79abff;&quot;&gt;y&lt;/span&gt;=&lt;span style=&quot;color: #17c6a3;&quot;&gt;&quot;0.5&quot;&lt;/span&gt; &lt;span style=&quot;color: #79abff;&quot;&gt;perimeter&lt;/span&gt;=&lt;span style=&quot;color: #17c6a3;&quot;&gt;&quot;0&quot;&lt;/span&gt; &lt;span style=&quot;color: #79abff;&quot;&gt;name&lt;/span&gt;=&lt;span style=&quot;color: #17c6a3;&quot;&gt;&quot;W&quot;&lt;/span&gt;/&amp;gt;&lt;/div&gt;&lt;div&gt;&amp;nbsp; &amp;nbsp; &amp;lt;&lt;span style=&quot;color: #dd2867;font-weight: bold;&quot;&gt;constraint&lt;/span&gt; &lt;span style=&quot;color: #79abff;&quot;&gt;x&lt;/span&gt;=&lt;span style=&quot;color: #17c6a3;&quot;&gt;&quot;1&quot;&lt;/span&gt; &lt;span style=&quot;color: #79abff;&quot;&gt;y&lt;/span&gt;=&lt;span style=&quot;color: #17c6a3;&quot;&gt;&quot;0.5&quot;&lt;/span&gt; &lt;span style=&quot;color: #79abff;&quot;&gt;perimeter&lt;/span&gt;=&lt;span style=&quot;color: #17c6a3;&quot;&gt;&quot;0&quot;&lt;/span&gt; &lt;span style=&quot;color: #79abff;&quot;&gt;name&lt;/span&gt;=&lt;span style=&quot;color: #17c6a3;&quot;&gt;&quot;E&quot;&lt;/span&gt;/&amp;gt;&lt;/div&gt;&lt;div&gt;&amp;nbsp; &amp;nbsp; &amp;lt;&lt;span style=&quot;color: #dd2867;font-weight: bold;&quot;&gt;constraint&lt;/span&gt; &lt;span style=&quot;color: #79abff;&quot;&gt;x&lt;/span&gt;=&lt;span style=&quot;color: #17c6a3;&quot;&gt;&quot;0&quot;&lt;/span&gt; &lt;span style=&quot;color: #79abff;&quot;&gt;y&lt;/span&gt;=&lt;span style=&quot;color: #17c6a3;&quot;&gt;&quot;0&quot;&lt;/span&gt; &lt;span style=&quot;color: #79abff;&quot;&gt;perimeter&lt;/span&gt;=&lt;span style=&quot;color: #17c6a3;&quot;&gt;&quot;0&quot;&lt;/span&gt; &lt;span style=&quot;color: #79abff;&quot;&gt;name&lt;/span&gt;=&lt;span style=&quot;color: #17c6a3;&quot;&gt;&quot;NW&quot;&lt;/span&gt;/&amp;gt;&lt;/div&gt;&lt;div&gt;&amp;nbsp; &amp;nbsp; &amp;lt;&lt;span style=&quot;color: #dd2867;font-weight: bold;&quot;&gt;constraint&lt;/span&gt; &lt;span style=&quot;color: #79abff;&quot;&gt;x&lt;/span&gt;=&lt;span style=&quot;color: #17c6a3;&quot;&gt;&quot;1&quot;&lt;/span&gt; &lt;span style=&quot;color: #79abff;&quot;&gt;y&lt;/span&gt;=&lt;span style=&quot;color: #17c6a3;&quot;&gt;&quot;0&quot;&lt;/span&gt; &lt;span style=&quot;color: #79abff;&quot;&gt;perimeter&lt;/span&gt;=&lt;span style=&quot;color: #17c6a3;&quot;&gt;&quot;0&quot;&lt;/span&gt; &lt;span style=&quot;color: #79abff;&quot;&gt;name&lt;/span&gt;=&lt;span style=&quot;color: #17c6a3;&quot;&gt;&quot;NE&quot;&lt;/span&gt;/&amp;gt;&lt;/div&gt;&lt;div&gt;&amp;nbsp; &amp;nbsp; &amp;lt;&lt;span style=&quot;color: #dd2867;font-weight: bold;&quot;&gt;constraint&lt;/span&gt; &lt;span style=&quot;color: #79abff;&quot;&gt;x&lt;/span&gt;=&lt;span style=&quot;color: #17c6a3;&quot;&gt;&quot;1&quot;&lt;/span&gt; &lt;span style=&quot;color: #79abff;&quot;&gt;y&lt;/span&gt;=&lt;span style=&quot;color: #17c6a3;&quot;&gt;&quot;1&quot;&lt;/span&gt; &lt;span style=&quot;color: #79abff;&quot;&gt;perimeter&lt;/span&gt;=&lt;span style=&quot;color: #17c6a3;&quot;&gt;&quot;0&quot;&lt;/span&gt; &lt;span style=&quot;color: #79abff;&quot;&gt;name&lt;/span&gt;=&lt;span style=&quot;color: #17c6a3;&quot;&gt;&quot;SE&quot;&lt;/span&gt;/&amp;gt;&lt;/div&gt;&lt;div&gt;&amp;nbsp; &amp;nbsp; &amp;lt;&lt;span style=&quot;color: #dd2867;font-weight: bold;&quot;&gt;constraint&lt;/span&gt; &lt;span style=&quot;color: #79abff;&quot;&gt;x&lt;/span&gt;=&lt;span style=&quot;color: #17c6a3;&quot;&gt;&quot;0&quot;&lt;/span&gt; &lt;span style=&quot;color: #79abff;&quot;&gt;y&lt;/span&gt;=&lt;span style=&quot;color: #17c6a3;&quot;&gt;&quot;1&quot;&lt;/span&gt; &lt;span style=&quot;color: #79abff;&quot;&gt;perimeter&lt;/span&gt;=&lt;span style=&quot;color: #17c6a3;&quot;&gt;&quot;0&quot;&lt;/span&gt; &lt;span style=&quot;color: #79abff;&quot;&gt;name&lt;/span&gt;=&lt;span style=&quot;color: #17c6a3;&quot;&gt;&quot;SW&quot;&lt;/span&gt;/&amp;gt;&lt;/div&gt;&lt;div&gt;&amp;lt;/&lt;span style=&quot;color: #dd2867;font-weight: bold;&quot;&gt;connections&lt;/span&gt;&amp;gt;&lt;/div&gt;&lt;div&gt;&amp;nbsp; &amp;lt;&lt;span style=&quot;color: #dd2867;font-weight: bold;&quot;&gt;background&lt;/span&gt;&amp;gt;&lt;/div&gt;&lt;div&gt;&amp;nbsp; &amp;nbsp; &amp;lt;&lt;span style=&quot;color: #dd2867;font-weight: bold;&quot;&gt;strokecolor&lt;/span&gt; &lt;span style=&quot;color: #79abff;&quot;&gt;color&lt;/span&gt;=&lt;span style=&quot;color: #17c6a3;&quot;&gt;&quot;#000000&quot;&lt;/span&gt; /&amp;gt;&lt;/div&gt;&lt;div&gt;&amp;nbsp; &amp;nbsp; &amp;lt;&lt;span style=&quot;color: #dd2867;font-weight: bold;&quot;&gt;fillcolor&lt;/span&gt; &lt;span style=&quot;color: #79abff;&quot;&gt;color&lt;/span&gt;=&lt;span style=&quot;color: #17c6a3;&quot;&gt;&quot;#ffffff&quot;&lt;/span&gt; /&amp;gt;&lt;/div&gt;&lt;div&gt;&amp;nbsp; &amp;nbsp; &amp;lt;&lt;span style=&quot;color: #dd2867;font-weight: bold;&quot;&gt;path&lt;/span&gt;&amp;gt;&lt;/div&gt;&lt;div&gt;&amp;nbsp; &amp;nbsp; &amp;nbsp; &amp;lt;&lt;span style=&quot;color: #dd2867;font-weight: bold;&quot;&gt;move&lt;/span&gt; &lt;span style=&quot;color: #79abff;&quot;&gt;x&lt;/span&gt;=&lt;span style=&quot;color: #17c6a3;&quot;&gt;&quot;0&quot;&lt;/span&gt; &lt;span style=&quot;color: #79abff;&quot;&gt;y&lt;/span&gt;=&lt;span style=&quot;color: #17c6a3;&quot;&gt;&quot;0&quot;&lt;/span&gt; /&amp;gt;&lt;/div&gt;&lt;div&gt;&amp;nbsp; &amp;nbsp; &amp;nbsp; &amp;lt;&lt;span style=&quot;color: #dd2867;font-weight: bold;&quot;&gt;line&lt;/span&gt; &lt;span style=&quot;color: #79abff;&quot;&gt;x&lt;/span&gt;=&lt;span style=&quot;color: #17c6a3;&quot;&gt;&quot;150&quot;&lt;/span&gt; &lt;span style=&quot;color: #79abff;&quot;&gt;y&lt;/span&gt;=&lt;span style=&quot;color: #17c6a3;&quot;&gt;&quot;0&quot;&lt;/span&gt; /&amp;gt;&lt;/div&gt;&lt;div&gt;&amp;nbsp; &amp;nbsp; &amp;nbsp; &amp;lt;&lt;span style=&quot;color: #dd2867;font-weight: bold;&quot;&gt;line&lt;/span&gt; &lt;span style=&quot;color: #79abff;&quot;&gt;x&lt;/span&gt;=&lt;span style=&quot;color: #17c6a3;&quot;&gt;&quot;150&quot;&lt;/span&gt; &lt;span style=&quot;color: #79abff;&quot;&gt;y&lt;/span&gt;=&lt;span style=&quot;color: #17c6a3;&quot;&gt;&quot;50&quot;&lt;/span&gt; /&amp;gt;&lt;/div&gt;&lt;div&gt;&amp;nbsp; &amp;nbsp; &amp;nbsp; &amp;lt;&lt;span style=&quot;color: #dd2867;font-weight: bold;&quot;&gt;line&lt;/span&gt; &lt;span style=&quot;color: #79abff;&quot;&gt;x&lt;/span&gt;=&lt;span style=&quot;color: #17c6a3;&quot;&gt;&quot;0&quot;&lt;/span&gt; &lt;span style=&quot;color: #79abff;&quot;&gt;y&lt;/span&gt;=&lt;span style=&quot;color: #17c6a3;&quot;&gt;&quot;50&quot;&lt;/span&gt; /&amp;gt;&lt;/div&gt;&lt;div&gt;&amp;nbsp; &amp;nbsp; &amp;nbsp; &amp;lt;&lt;span style=&quot;color: #dd2867;font-weight: bold;&quot;&gt;close&lt;/span&gt; /&amp;gt;&lt;/div&gt;&lt;div&gt;&amp;nbsp; &amp;nbsp; &amp;lt;/&lt;span style=&quot;color: #dd2867;font-weight: bold;&quot;&gt;path&lt;/span&gt;&amp;gt;&lt;/div&gt;&lt;div&gt;&amp;nbsp; &amp;lt;/&lt;span style=&quot;color: #dd2867;font-weight: bold;&quot;&gt;background&lt;/span&gt;&amp;gt;&lt;/div&gt;&lt;div&gt;&amp;nbsp; &amp;lt;&lt;span style=&quot;color: #dd2867;font-weight: bold;&quot;&gt;foreground&lt;/span&gt;&amp;gt;&lt;/div&gt;&lt;div&gt;&amp;nbsp; &amp;nbsp; &amp;lt;&lt;span style=&quot;color: #dd2867;font-weight: bold;&quot;&gt;fillstroke&lt;/span&gt; /&amp;gt;&lt;/div&gt;&lt;div&gt;&amp;nbsp; &amp;nbsp; &amp;lt;&lt;span style=&quot;color: #dd2867;font-weight: bold;&quot;&gt;path&lt;/span&gt;&amp;gt;&lt;/div&gt;&lt;div&gt;&amp;nbsp; &amp;nbsp; &amp;nbsp; &amp;lt;&lt;span style=&quot;color: #dd2867;font-weight: bold;&quot;&gt;move&lt;/span&gt; &lt;span style=&quot;color: #79abff;&quot;&gt;x&lt;/span&gt;=&lt;span style=&quot;color: #17c6a3;&quot;&gt;&quot;50&quot;&lt;/span&gt; &lt;span style=&quot;color: #79abff;&quot;&gt;y&lt;/span&gt;=&lt;span style=&quot;color: #17c6a3;&quot;&gt;&quot;0&quot;&lt;/span&gt; /&amp;gt;&lt;/div&gt;&lt;div&gt;&amp;nbsp; &amp;nbsp; &amp;nbsp; &amp;lt;&lt;span style=&quot;color: #dd2867;font-weight: bold;&quot;&gt;line&lt;/span&gt; &lt;span style=&quot;color: #79abff;&quot;&gt;x&lt;/span&gt;=&lt;span style=&quot;color: #17c6a3;&quot;&gt;&quot;50&quot;&lt;/span&gt; &lt;span style=&quot;color: #79abff;&quot;&gt;y&lt;/span&gt;=&lt;span style=&quot;color: #17c6a3;&quot;&gt;&quot;50&quot;&lt;/span&gt; /&amp;gt;&lt;/div&gt;&lt;div&gt;&amp;nbsp; &amp;nbsp; &amp;nbsp; &amp;lt;&lt;span style=&quot;color: #dd2867;font-weight: bold;&quot;&gt;close&lt;/span&gt; /&amp;gt;&lt;/div&gt;&lt;div&gt;&amp;nbsp; &amp;nbsp; &amp;lt;/&lt;span style=&quot;color: #dd2867;font-weight: bold;&quot;&gt;path&lt;/span&gt;&amp;gt;&lt;/div&gt;&lt;div&gt;&amp;nbsp; &amp;nbsp; &amp;lt;&lt;span style=&quot;color: #dd2867;font-weight: bold;&quot;&gt;stroke&lt;/span&gt; /&amp;gt;&lt;/div&gt;&lt;div&gt;&amp;nbsp; &amp;nbsp; &amp;lt;&lt;span style=&quot;color: #dd2867;font-weight: bold;&quot;&gt;path&lt;/span&gt;&amp;gt;&lt;/div&gt;&lt;div&gt;&amp;nbsp; &amp;nbsp; &amp;nbsp; &amp;lt;&lt;span style=&quot;color: #dd2867;font-weight: bold;&quot;&gt;move&lt;/span&gt; &lt;span style=&quot;color: #79abff;&quot;&gt;x&lt;/span&gt;=&lt;span style=&quot;color: #17c6a3;&quot;&gt;&quot;100&quot;&lt;/span&gt; &lt;span style=&quot;color: #79abff;&quot;&gt;y&lt;/span&gt;=&lt;span style=&quot;color: #17c6a3;&quot;&gt;&quot;0&quot;&lt;/span&gt; /&amp;gt;&lt;/div&gt;&lt;div&gt;&amp;nbsp; &amp;nbsp; &amp;nbsp; &amp;lt;&lt;span style=&quot;color: #dd2867;font-weight: bold;&quot;&gt;line&lt;/span&gt; &lt;span style=&quot;color: #79abff;&quot;&gt;x&lt;/span&gt;=&lt;span style=&quot;color: #17c6a3;&quot;&gt;&quot;100&quot;&lt;/span&gt; &lt;span style=&quot;color: #79abff;&quot;&gt;y&lt;/span&gt;=&lt;span style=&quot;color: #17c6a3;&quot;&gt;&quot;50&quot;&lt;/span&gt; /&amp;gt;&lt;/div&gt;&lt;div&gt;&amp;nbsp; &amp;nbsp; &amp;nbsp; &amp;lt;&lt;span style=&quot;color: #dd2867;font-weight: bold;&quot;&gt;close&lt;/span&gt; /&amp;gt;&lt;/div&gt;&lt;div&gt;&amp;nbsp; &amp;nbsp; &amp;lt;/&lt;span style=&quot;color: #dd2867;font-weight: bold;&quot;&gt;path&lt;/span&gt;&amp;gt;&lt;/div&gt;&lt;div&gt;&amp;nbsp; &amp;nbsp; &amp;lt;&lt;span style=&quot;color: #dd2867;font-weight: bold;&quot;&gt;stroke&lt;/span&gt; /&amp;gt;&lt;/div&gt;&lt;div&gt;&amp;nbsp; &amp;nbsp; &amp;lt;&lt;span style=&quot;color: #dd2867;font-weight: bold;&quot;&gt;text&lt;/span&gt; &lt;span style=&quot;color: #79abff;&quot;&gt;str&lt;/span&gt;=&lt;span style=&quot;color: #17c6a3;&quot;&gt;&quot;prev&quot;&lt;/span&gt; &lt;span style=&quot;color: #79abff;&quot;&gt;x&lt;/span&gt;=&lt;span style=&quot;color: #17c6a3;&quot;&gt;&quot;25&quot;&lt;/span&gt; &lt;span style=&quot;color: #79abff;&quot;&gt;y&lt;/span&gt;=&lt;span style=&quot;color: #17c6a3;&quot;&gt;&quot;25&quot;&lt;/span&gt; &lt;span style=&quot;color: #79abff;&quot;&gt;align&lt;/span&gt;=&lt;span style=&quot;color: #17c6a3;&quot;&gt;&quot;left&quot;&lt;/span&gt; &lt;span style=&quot;color: #79abff;&quot;&gt;valign&lt;/span&gt;=&lt;span style=&quot;color: #17c6a3;&quot;&gt;&quot;top&quot;&lt;/span&gt; &lt;span style=&quot;color: #79abff;&quot;&gt;vertical&lt;/span&gt;=&lt;span style=&quot;color: #17c6a3;&quot;&gt;&quot;0&quot;&lt;/span&gt; &lt;span style=&quot;color: #79abff;&quot;&gt;rotation&lt;/span&gt;=&lt;span style=&quot;color: #17c6a3;&quot;&gt;&quot;0.0&quot;&lt;/span&gt; &lt;span style=&quot;color: #79abff;&quot;&gt;align-shape&lt;/span&gt;=&lt;span style=&quot;color: #17c6a3;&quot;&gt;&quot;1&quot;&lt;/span&gt;/&amp;gt;&lt;/div&gt;&lt;div&gt;&amp;nbsp; &amp;nbsp; &amp;lt;&lt;span style=&quot;color: #dd2867;font-weight: bold;&quot;&gt;text&lt;/span&gt; &lt;span style=&quot;color: #79abff;&quot;&gt;str&lt;/span&gt;=&lt;span style=&quot;color: #17c6a3;&quot;&gt;&quot;data&quot;&lt;/span&gt; &lt;span style=&quot;color: #79abff;&quot;&gt;x&lt;/span&gt;=&lt;span style=&quot;color: #17c6a3;&quot;&gt;&quot;75&quot;&lt;/span&gt; &lt;span style=&quot;color: #79abff;&quot;&gt;y&lt;/span&gt;=&lt;span style=&quot;color: #17c6a3;&quot;&gt;&quot;25&quot;&lt;/span&gt; &lt;span style=&quot;color: #79abff;&quot;&gt;align&lt;/span&gt;=&lt;span style=&quot;color: #17c6a3;&quot;&gt;&quot;left&quot;&lt;/span&gt; &lt;span style=&quot;color: #79abff;&quot;&gt;valign&lt;/span&gt;=&lt;span style=&quot;color: #17c6a3;&quot;&gt;&quot;top&quot;&lt;/span&gt; &lt;span style=&quot;color: #79abff;&quot;&gt;vertical&lt;/span&gt;=&lt;span style=&quot;color: #17c6a3;&quot;&gt;&quot;0&quot;&lt;/span&gt; &lt;span style=&quot;color: #79abff;&quot;&gt;rotation&lt;/span&gt;=&lt;span style=&quot;color: #17c6a3;&quot;&gt;&quot;0.0&quot;&lt;/span&gt; &lt;span style=&quot;color: #79abff;&quot;&gt;align-shape&lt;/span&gt;=&lt;span style=&quot;color: #17c6a3;&quot;&gt;&quot;1&quot;&lt;/span&gt;/&amp;gt;&lt;/div&gt;&lt;div&gt;&amp;nbsp; &amp;nbsp; &amp;lt;&lt;span style=&quot;color: #dd2867;font-weight: bold;&quot;&gt;text&lt;/span&gt; &lt;span style=&quot;color: #79abff;&quot;&gt;str&lt;/span&gt;=&lt;span style=&quot;color: #17c6a3;&quot;&gt;&quot;next&quot;&lt;/span&gt; &lt;span style=&quot;color: #79abff;&quot;&gt;x&lt;/span&gt;=&lt;span style=&quot;color: #17c6a3;&quot;&gt;&quot;100&quot;&lt;/span&gt; &lt;span style=&quot;color: #79abff;&quot;&gt;y&lt;/span&gt;=&lt;span style=&quot;color: #17c6a3;&quot;&gt;&quot;25&quot;&lt;/span&gt; &lt;span style=&quot;color: #79abff;&quot;&gt;align&lt;/span&gt;=&lt;span style=&quot;color: #17c6a3;&quot;&gt;&quot;left&quot;&lt;/span&gt; &lt;span style=&quot;color: #79abff;&quot;&gt;valign&lt;/span&gt;=&lt;span style=&quot;color: #17c6a3;&quot;&gt;&quot;top&quot;&lt;/span&gt; &lt;span style=&quot;color: #79abff;&quot;&gt;vertical&lt;/span&gt;=&lt;span style=&quot;color: #17c6a3;&quot;&gt;&quot;0&quot;&lt;/span&gt; &lt;span style=&quot;color: #79abff;&quot;&gt;rotation&lt;/span&gt;=&lt;span style=&quot;color: #17c6a3;&quot;&gt;&quot;0.0&quot;&lt;/span&gt; &lt;span style=&quot;color: #79abff;&quot;&gt;align-shape&lt;/span&gt;=&lt;span style=&quot;color: #17c6a3;&quot;&gt;&quot;1&quot;&lt;/span&gt;/&amp;gt;&lt;/div&gt;&lt;div&gt;&amp;nbsp; &amp;lt;/&lt;span style=&quot;color: #dd2867;font-weight: bold;&quot;&gt;foreground&lt;/span&gt;&amp;gt;&lt;/div&gt;&lt;div&gt;&amp;lt;/&lt;span style=&quot;color: #dd2867;font-weight: bold;&quot;&gt;shape&lt;/span&gt;&amp;gt;&lt;/div&gt;&lt;br&gt;&lt;br&gt;&lt;br&gt;&lt;/div&gt;" style="html=1;fontSize=16;fontColor=#2dd421;" vertex="1" parent="1">
                    <mxGeometry x="370" y="550" width="110" height="50" as="geometry"/>
                </mxCell>
            </root>
        </mxGraphModel>
    </diagram>
</mxfile>